<svg width="16.000000" height="16.000000" viewBox="0 0 16 16" fill="none" xmlns="http://www.w3.org/2000/svg" xmlns:xlink="http://www.w3.org/1999/xlink">
	<desc>
			Created with Pixso.
	</desc>
	<defs/>
	<rect id="Property 1=linear" width="16.000000" height="16.000000" fill="#FFFFFF" fill-opacity="0"/>
	<path id="Vector" d="M7.99 14.66C4.31 14.66 1.33 11.68 1.33 8C1.33 4.32 4.31 1.33 7.99 1.33C11.68 1.33 14.66 4.32 14.66 8C14.66 11.68 11.68 14.66 7.99 14.66Z" stroke="#92929D" stroke-opacity="1.000000" stroke-width="1.000000" stroke-linejoin="round"/>
	<path id="Vector" d="M10.47 10.12L8.4 8.88C8.04 8.67 7.75 8.15 7.75 7.73L7.75 5" stroke="#92929D" stroke-opacity="1.000000" stroke-width="1.000000" stroke-linejoin="round" stroke-linecap="round"/>
	<g opacity="0.000000">
		<path id="Vector" d="M16 0L0 0L0 16L16 16L16 0ZM1 15L1 1L15 1L15 15L1 15Z" fill="#92929D" fill-opacity="1.000000" fill-rule="evenodd"/>
	</g>
</svg>
